<svg width="500" height="500" viewBox="0 0 500 500" fill="none" xmlns="http://www.w3.org/2000/svg">
<rect width="500" height="500" fill="#293136"/>
<path d="M289.375 171.25H210.625L190.227 130.508C189.242 128.539 188.75 126.352 188.75 124.164C188.75 116.344 195.094 110 202.914 110H297.086C304.906 110 311.25 116.344 311.25 124.164C311.25 126.352 310.758 128.539 309.773 130.508L289.375 171.25ZM202.75 197.5H297.25L323.883 219.703C360.25 250 381.25 294.844 381.25 342.148C381.25 368.562 359.812 390 333.398 390H166.547C140.187 390 118.75 368.562 118.75 342.148C118.75 294.844 139.75 250 176.117 219.703L202.75 197.5ZM252.188 232.5C246.172 232.5 241.25 237.422 241.25 243.438V245.625C225.5 245.789 212.812 258.586 212.812 274.336C212.812 288.391 222.93 300.367 236.82 302.664L259.625 306.492C262.906 307.039 265.312 309.883 265.312 313.219C265.312 316.992 262.25 320.055 258.477 320.055L228.125 320C222.109 320 217.188 324.922 217.188 330.938C217.188 336.953 222.109 341.875 228.125 341.875H241.25V344.062C241.25 350.078 246.172 355 252.188 355C258.203 355 263.125 350.078 263.125 344.062V341.492C276.797 339.25 287.188 327.438 287.188 313.164C287.188 299.109 277.07 287.133 263.18 284.836L240.375 281.008C237.094 280.461 234.688 277.617 234.688 274.281C234.688 270.508 237.75 267.445 241.523 267.445H267.5C273.516 267.445 278.438 262.523 278.438 256.508C278.438 250.492 273.516 245.57 267.5 245.57H263.125V243.383C263.125 237.367 258.203 232.445 252.188 232.445V232.5Z" fill="#A7C080"/>
</svg>
